<?xml version="1.0" encoding="UTF-8"?>
<svg id="Layer_2" data-name="Layer 2" xmlns="http://www.w3.org/2000/svg" viewBox="0 0 800.03 378.2">
  <defs>
    <style>
      .cls-1 {
        fill: #eabd7b;
      }
    </style>
  </defs>
  <g id="Layer_1-2" data-name="Layer 1">
    <path class="cls-1" d="m794.03,189.1C792.1,82.83,704.33-1.8,598.05.03c-9.78,0-20.03.8-30.07,1.7-83.97,12.37-139.98,72.68-170.98,119C365.38,74.4,309,14.1,225.67,1.73,215.65.83,205.75.03,195.7.03,89.47-1.55,1.97,82.95,0,189.1c1.98,106.12,89.47,190.62,195.7,189.07,10.02,0,19.93-.8,30.6-2.1,84-11.98,139.97-72.28,171.37-118.6,31.62,46.33,87.63,106.62,171.33,119,10.3.9,20.07,1.7,30.32,1.7,105.73,1.03,192.72-83.33,194.68-189.07h.03Zm-578,120.07c-6.63,1.3-14.3,1.3-20.92,1.3-69.18,1.42-126.43-53-128.4-122.03,2.2-69.13,59.62-123.57,128.62-122,6.68,0,14.07.68,20.97,1.3,79.03,11.72,127.38,89.07,143.78,120.7-16.67,31.68-64.97,110.03-143.77,120.73h-.28Zm217.32-120.07c16.28-31,64.7-109,143.62-120.7,6.77-1.3,14.03-1.3,20.7-1.3,69.4-2.1,127.2,52.6,129.02,122-2.23,69-59.63,123.43-128.67,122-6.77,0-14.03-.62-20.7-1.3-78.63-11.7-127.33-89.7-143.6-120.7h-.37Zm-292.95,19.68h117.97v-38.67h-117.7v38.67h-.27Zm470.95,0h39.7v-38.67h-40.1v-39.72h-37.62v40.1h-39.97v38.3h39.97v39.32h38.43v-38.92l-.4-.4ZM800.03,24.4c0,10-7.3,17.02-17.7,17.02-9.5.4-17.47-7.17-17.6-16.67,0-9.38,7.98-17.3,17.6-17.3,10.4,0,17.7,7.3,17.7,16.93v.03Zm-30.32,0c0,7.4,5.32,13.4,13.28,13.4,7.43,0,12.77-6,12.77-13.4s-5.32-13.3-12.77-13.3c-7.92-.62-13.28,5.33-13.28,13.3Zm10.02,8.7h-3.4V15.8l6.62-.4c3,0,4.7.4,6.13,1.03,1.3.68,1.92,1.98,1.92,3.68,0,1.92-1.3,3.38-3.63,3.63,1.7.68,2.33,2.1,3,4.43l.9,4.3h-3.9c-.62-.68-.62-2.38-1.42-4.3-.62-1.7-1.3-2.33-3.63-2.33h-1.57l-.8,7.28h-.23Zm.62-10h1.98c2.33,0,3.38-.27,3.38-2.38,0-1.7-1.03-2.33-3.38-2.33h-2.37v4.7h.4Z"/>
  </g>
</svg>