<?xml version="1.0" encoding="UTF-8"?>
<svg id="Layer_2" data-name="Layer 2" xmlns="http://www.w3.org/2000/svg" viewBox="0 0 79.17 87.5">
  <defs>
    <style>
      .cls-1 {
        fill: #eabd7b;
        fill-rule: evenodd;
      }
    </style>
  </defs>
  <g id="Layer_1-2" data-name="Layer 1">
    <g>
      <path class="cls-1" d="m79.15,24.98c0-1.19.02-2.71-1.05-3.72l-39.36,22.49,39.76,21.87c.41-.65.68-1.52.67-2.35-.09-7.91-.02-30.39-.02-38.3Zm-16.65,20.86h-4.17v4.17h-4.17v-4.17h-4.17v-4.17h4.17v-4.17h4.17v4.17h4.17v4.17Zm14.58,0h-4.17v4.17h-4.17v-4.17h-4.17v-4.17h4.17v-4.17h4.17v4.17h4.17v4.17Z"/>
      <path class="cls-1" d="m76.88,20.25c-6.99-3.92-28.02-15.73-35.01-19.65-1.41-.79-3.15-.79-4.57,0C30.31,4.52,9.27,16.33,2.29,20.25c-1.41.79-2.29,2.26-2.29,3.85v39.31c0,1.59.87,3.05,2.28,3.85,6.99,3.92,28.02,15.73,35.01,19.65,1.41.79,3.15.79,4.57,0,6.99-3.92,28.02-15.73,35.01-19.65,1.41-.79,2.29-2.26,2.29-3.85V24.1c0-1.59-.87-3.05-2.29-3.85Zm.2,25.58h-4.17v4.17h-4.17v-4.17h-.08c-1.07,15.13-13.69,27.08-29.08,27.08s-29.17-13.07-29.17-29.17,13.07-29.17,29.17-29.17,28.01,11.96,29.08,27.08h.08v-4.17h4.17v4.17h4.17v4.17Z"/>
      <path class="cls-1" d="m49.72,45.83v-4.17h4.28c-1.01-7.06-7.08-12.5-14.42-12.5-8.05,0-14.58,6.53-14.58,14.58s6.54,14.58,14.58,14.58c7.34,0,13.4-5.44,14.42-12.5h-4.28Z"/>
    </g>
  </g>
</svg>