<?xml version="1.0" encoding="UTF-8"?>
<svg id="Layer_2" data-name="Layer 2" xmlns="http://www.w3.org/2000/svg" viewBox="0 0 19.18 27.83">
  <defs>
    <style>
      .cls-1 {
        fill: #eabd7b;
      }
    </style>
  </defs>
  <g id="Layer_2-2" data-name="Layer 2">
    <g id="Layer_1-2" data-name="Layer 1-2">
      <g id="g902">
        <g id="logo_item--logo_0" data-name="logo item--logo 0">
          <g id="g57">
            <g id="g55">
              <g id="g39">
                <g id="g37">
                  <path id="path35" class="cls-1" d="m13.12,2.28h-7.06c-.57,0-1.04-.51-1.04-1.14s.46-1.14,1.04-1.14h7.06c.57,0,1.04.51,1.04,1.14s-.46,1.14-1.04,1.14Z"/>
                </g>
              </g>
              <path id="path45" class="cls-1" d="m13.52,7.78v-2.49s3.16-.7,4.74,2.98c0,0-2.46,1.79-4.74-.49Z"/>
              <path id="path47" class="cls-1" d="m5.78,7.78v-2.49s-3.16-.7-4.74,2.98c0,0,2.46,1.79,4.74-.49Z"/>
              <path class="cls-1" d="m18.88,23.24l-5.88-15.11V2.89h-6.64v5.24L.18,23.54c-1.15,3.79,3.64,4.29,3.64,4.29h11.72c5.14-.9,3.34-4.59,3.34-4.59Zm-7.62-11.8c.76,0,1.38.74,1.38,1.66s-.62,1.65-1.38,1.65-1.38-.74-1.38-1.65.62-1.66,1.38-1.66Zm-4.22,1.5c.64,0,1.16.63,1.16,1.4s-.52,1.4-1.16,1.4-1.16-.63-1.16-1.4.52-1.4,1.16-1.4Zm7.52,13.63H4.77s-4-.4-3.04-3.46l2.13-5.12c2.11-.65,6.43-1.5,11.56.09l1.93,4.79s1.5,2.97-2.79,3.7Z"/>
              <path id="path51" class="cls-1" d="m8.02,19.99c0,.55-.74,1-1.66,1s-1.65-.45-1.65-1,.74-1,1.65-1,1.66.45,1.66,1Z"/>
              <path id="path53" class="cls-1" d="m13.91,19.99c0,.55-.74,1-1.65,1s-1.66-.45-1.66-1,.74-1,1.66-1,1.65.45,1.65,1Z"/>
            </g>
          </g>
        </g>
      </g>
    </g>
  </g>
</svg>