<?xml version="1.0" encoding="UTF-8"?>
<svg id="Layer_2" data-name="Layer 2" xmlns="http://www.w3.org/2000/svg" viewBox="0 0 279 199">
  <defs>
    <style>
      .cls-1 {
        fill: #eabd7b;
      }
    </style>
  </defs>
  <g id="Layer_1-2" data-name="Layer 1">
    <g>
      <path class="cls-1" d="m62.36,68.12c-7.52,0-12.68,2.48-15.48,7.44s-4.2,12.88-4.2,23.76,1.36,18.68,4.08,23.4c2.72,4.64,7.92,6.96,15.6,6.96s12.84-2.28,15.48-6.84c2.72-4.64,4.08-12.44,4.08-23.4s-1.4-18.92-4.2-23.88c-2.72-4.96-7.84-7.44-15.36-7.44Z"/>
      <path class="cls-1" d="m31.89,0L0,31.84v167.16h247.11l31.89-31.84V0H31.89Zm60.83,152.36l-12.36,5.76-10.68-17.52c-1.52.48-3.96.72-7.32.72-12.48,0-21.2-3.36-26.16-10.08-4.88-6.72-7.32-17.32-7.32-31.8s2.48-25.36,7.44-32.4c5.04-7.04,13.72-10.56,26.04-10.56s20.96,3.52,25.92,10.56c4.96,6.96,7.44,17.72,7.44,32.28,0,9.6-1.04,17.36-3.12,23.28-2,5.92-5.32,10.44-9.96,13.56l10.08,16.2Zm99.27-12.36h-13.44v-67.44h-1.8l-19.44,64.08h-13.92l-19.44-64.08h-1.8v67.44h-13.32V57.8h23.16l18.36,64.2,18.36-64.2h23.28v82.2Zm62.47,0h-46.08V57.8h13.32v70.32h32.76v11.88Z"/>
    </g>
  </g>
</svg>