<?xml version="1.0" encoding="UTF-8"?>
<svg id="Layer_2" data-name="Layer 2" xmlns="http://www.w3.org/2000/svg" viewBox="0 0 688.55 700">
  <defs>
    <style>
      .cls-1 {
        fill: #eabd7b;
      }
    </style>
  </defs>
  <g id="Layer_1-2" data-name="Layer 1">
    <path class="cls-1" d="m624.48,295.9c-51.89-21.22-121.5,24.42-166.39,82.92.71-1.02,1.41-2.06,2.14-3.07-7.94-82.08-36.94-160.72-84.2-228.3C350.28,111.33,261.03-14.5,162.38,1.38,98.78,11.58,51.73,76.3,58.58,86.53c6.55,10,62.5-40.2,111.35-29.03,51.43,11.78,100.17,92.81,121.08,341.13-72.15-59.65-135.79-81.91-177.33-92.98-51.8-13.8-109.88-18.5-113.5-7.33-4.58,14.12,80.08,30.6,137.85,107.17,35.55,53.36,56.73,115,61.47,178.95,5.53,38.24,7,76.95,4.38,115.5h186.42s0,.03,0,.05l163.92-.05c-8-64.17-11.2-119-12.5-161.22-2.35-80.8,2.5-113.53,22.5-143.9,4.83-7.38,32.2-49.38,64.5-46.58,36.65,3.2,55.32,60.35,59.05,58.43,4.37-2.25-9-88.58-63.3-110.78Zm-291.6,230.93c-24.2-.01-43.82-19.64-43.8-43.85.01-24.2,19.64-43.82,43.85-43.8,11.62,0,22.76,4.63,30.98,12.85,8.23,8.22,12.84,19.37,12.83,31-.01,24.2-19.64,43.82-43.85,43.8Zm116.88,0c-24.2-.01-43.82-19.64-43.8-43.85.01-24.2,19.64-43.82,43.85-43.8,11.62,0,22.76,4.63,30.98,12.85,8.23,8.22,12.84,19.37,12.83,31-.01,24.2-19.64,43.82-43.85,43.8Z"/>
  </g>
</svg>