<?xml version="1.0" standalone="no"?>
<!DOCTYPE svg PUBLIC "-//W3C//DTD SVG 20010904//EN"
 "http://www.w3.org/TR/2001/REC-SVG-20010904/DTD/svg10.dtd">
<svg version="1.0" xmlns="http://www.w3.org/2000/svg"
 width="400.000000pt" height="400.000000pt" viewBox="0 0 400.000000 400.000000"
 preserveAspectRatio="xMidYMid meet">

<g transform="translate(0.000000,400.000000) scale(0.100000,-0.100000)"
fill="#eabd7b" stroke="none">
<path d="M913 3095 c-51 -62 -93 -118 -93 -124 0 -6 -4 -11 -9 -11 -5 0 -40
-39 -78 -87 -39 -49 -82 -101 -96 -118 -46 -54 -235 -283 -279 -338 -24 -30
-108 -134 -188 -231 -80 -98 -146 -181 -148 -185 -2 -6 36 -55 203 -257 22
-27 141 -173 264 -324 124 -151 228 -277 231 -280 3 -3 41 -50 85 -105 43 -55
88 -109 98 -120 11 -11 37 -44 59 -72 l40 -53 997 0 996 0 82 103 c45 56 91
111 100 122 10 11 39 47 65 80 25 33 54 69 65 80 10 11 36 42 58 70 22 27 96
117 164 200 155 189 137 166 266 325 60 74 115 141 122 148 8 8 25 29 40 48
l26 35 -24 26 c-13 15 -28 32 -34 38 -5 6 -21 26 -35 44 -14 18 -41 52 -60 75
-19 23 -51 61 -70 86 -19 24 -49 59 -66 79 -16 20 -82 99 -144 176 -63 77
-117 142 -120 145 -3 3 -40 48 -82 100 -148 185 -222 275 -252 311 -17 19 -48
56 -70 82 l-38 47 -992 -1 -991 0 -92 -114z m1437 -140 c0 -3 -39 -55 -87
-116 -49 -61 -97 -123 -108 -138 -11 -14 -80 -102 -153 -196 -73 -93 -152
-195 -175 -225 -23 -30 -69 -88 -102 -130 -34 -41 -71 -89 -83 -107 l-23 -32
52 -68 c29 -37 74 -95 101 -128 54 -67 239 -304 278 -355 14 -18 30 -38 35
-44 6 -6 33 -40 60 -76 27 -36 84 -109 127 -163 43 -54 78 -102 78 -108 0 -5
-233 -9 -614 -9 l-614 0 -118 153 c-65 83 -179 229 -254 323 -74 94 -146 186
-160 204 -14 18 -67 87 -119 153 -67 85 -92 123 -85 133 16 22 318 409 324
414 3 3 28 34 55 70 28 36 55 72 62 80 35 43 153 194 188 240 22 29 45 57 51
64 6 6 18 23 28 39 l18 27 619 0 c341 0 619 -2 619 -5z m601 -107 c39 -51 173
-223 297 -382 125 -158 255 -324 290 -368 34 -44 62 -87 62 -95 0 -8 -10 -27
-22 -42 -25 -30 -29 -35 -177 -226 -55 -71 -107 -137 -114 -145 -7 -8 -27 -33
-43 -55 -16 -22 -35 -46 -41 -55 -7 -8 -84 -105 -170 -215 l-158 -200 -191 -3
-192 -2 -28 33 c-41 48 -83 99 -161 198 -125 158 -228 284 -235 287 -13 6 -9
19 12 44 24 28 153 195 233 300 36 49 55 83 51 90 -4 7 -30 42 -58 78 -28 36
-94 123 -147 195 -94 125 -96 130 -81 150 10 12 104 130 211 263 l194 242 198
0 198 0 72 -92z"/>
</g>
</svg>
