<?xml version="1.0" encoding="UTF-8"?>
<svg id="Layer_2" data-name="Layer 2" xmlns="http://www.w3.org/2000/svg" viewBox="0 0 107.9 123.6">
  <defs>
    <style>
      .cls-1 {
        fill: #eabd7b;
      }
    </style>
  </defs>
  <g id="Layer_1-2" data-name="Layer 1">
    <path class="cls-1" d="m107.44,31.41l.36-.21c-.6-1.2-1.5-2.1-2.4-2.7L57.1.7c-.8-.5-1.9-.7-3.1-.7s-2.3.3-3.1.7L2.9,28.6c-1.7,1-2.9,3.5-2.9,5.4v55.7c0,1.03.2,2.24.88,3.29,0,0-.18.11-.18.11.5.8,1.2,1.5,1.9,1.9l48.2,27.9c.8.5,1.9.7,3.1.7s2.3-.3,3.1-.7l48-27.9c1.7-1,2.9-3.5,2.9-5.4v-55.7c0-.8-.1-1.67-.46-2.49Zm-53.44,54.89c9.1,0,17.1-5,21.3-12.4l12.9,7.6c-6.8,11.8-19.6,19.8-34.2,19.8-21.8,0-39.5-17.7-39.5-39.5S32.2,22.3,54,22.3c14.7,0,27.5,8.1,34.3,20l-13,7.5c-4.2-7.5-12.2-12.5-21.3-12.5-13.5,0-24.5,11-24.5,24.5s11,24.5,24.5,24.5Z"/>
  </g>
</svg>