<?xml version="1.0" encoding="UTF-8"?>
<svg id="Layer_2" data-name="Layer 2" xmlns="http://www.w3.org/2000/svg" xmlns:xlink="http://www.w3.org/1999/xlink" viewBox="0 0 684.09 644.79">
  <defs>
    <style>
      .cls-1 {
        fill: url(#linear-gradient-2);
      }

      .cls-2 {
        fill: url(#linear-gradient-3);
      }

      .cls-3 {
        fill: url(#linear-gradient);
      }
    </style>
    <linearGradient id="linear-gradient" x1="-87.27" y1="862.4" x2="-86.27" y2="862.4" gradientTransform="translate(34408.84 337566.21) scale(390.91 -390.91)" gradientUnits="userSpaceOnUse">
      <stop offset="0" stop-color="#a8814e"/>
      <stop offset=".5" stop-color="#eabe7b"/>
      <stop offset="1" stop-color="#e5b883"/>
    </linearGradient>
    <linearGradient id="linear-gradient-2" x1="146.59" y1="196.46" x2="537.5" y2="196.46" gradientTransform="matrix(1,0,0,1,0,0)" xlink:href="#linear-gradient"/>
    <linearGradient id="linear-gradient-3" x1="0" y1="434.23" x2="342.04" y2="434.23" gradientTransform="matrix(1,0,0,1,0,0)" xlink:href="#linear-gradient"/>
  </defs>
  <g id="Layer_1-2" data-name="Layer 1">
    <g>
      <path class="cls-3" d="m537.5,308.3l-48.87,28.2,48.88,28.22c30.23,17.46,48.85,49.71,48.85,84.62h0c0,34.91-18.62,67.17-48.85,84.63h0c-30.24,17.47-67.5,17.47-97.74,0l-48.86-28.21v-112.83l-48.87,28.2-48.86-28.2v169.26l48.86,28.2,48.88,28.22c60.47,34.91,134.97,34.91,195.44,0,60.48-34.91,97.73-99.44,97.73-169.27h0c0-69.83-37.25-134.35-97.72-169.27l-48.87-28.21v56.44h0Z"/>
      <path class="cls-1" d="m244.33,26.18h0c-60.48,34.92-97.73,99.44-97.73,169.27v56.41l2.98-1.71,45.88-26.48,48.87,28.19v-56.41c0-34.91,18.62-67.17,48.85-84.62h0c30.24-17.47,67.5-17.47,97.74,0h0c30.23,17.46,48.85,49.72,48.85,84.63v56.41l-97.73,56.44,48.87,28.2v56.43l97.72-56.43,48.87-28.2v-112.85c0-69.83-37.26-134.36-97.74-169.27h0C409.52,8.73,375.78,0,342.05,0s-67.48,8.73-97.71,26.18h0Z"/>
      <path class="cls-2" d="m149.57,250.15l-2.98,1.71-48.87,28.21C37.25,314.99,0,379.51,0,449.34h0c0,69.84,37.26,134.37,97.74,169.28,60.47,34.91,134.97,34.9,195.43,0l48.87-28.22-48.86-28.2v-56.43l-48.86,28.21c-30.24,17.46-67.5,17.46-97.74,0h0c-30.23-17.46-48.85-49.72-48.85-84.63h0c0-34.91,18.62-67.17,48.85-84.63l48.87-28.22,97.73,56.43v-56.43l48.86-28.2-97.72-56.44-48.87-28.19-45.88,26.48h0Z"/>
    </g>
  </g>
</svg>