<svg xmlns="http://www.w3.org/2000/svg" x="0px" y="0px" width="100" height="100" viewBox="0,0,256,256">
<defs><linearGradient x1="31.5" y1="10.98" x2="31.5" y2="53.049" gradientUnits="userSpaceOnUse" id="color-1_BZz399uT6eo0_gr1"><stop offset="0" stop-color="#eabd7b"></stop><stop offset="1" stop-color="#eabd7b"></stop></linearGradient><linearGradient x1="32" y1="19.02" x2="32" y2="46.98" gradientUnits="userSpaceOnUse" id="color-2_BZz399uT6eo0_gr2"><stop offset="0" stop-color="#eabd7b"></stop><stop offset="1" stop-color="#eabd7b"></stop></linearGradient><linearGradient x1="31.5" y1="3" x2="31.5" y2="61" gradientUnits="userSpaceOnUse" id="color-3_BZz399uT6eo0_gr3"><stop offset="0" stop-color="#eabd7b"></stop><stop offset="1" stop-color="#eabd7b"></stop></linearGradient></defs><g fill="none" fill-rule="nonzero" stroke="none" stroke-width="1" stroke-linecap="butt" stroke-linejoin="miter" stroke-miterlimit="10" stroke-dasharray="" stroke-dashoffset="0" font-family="none" font-weight="none" font-size="none" text-anchor="none" style="mix-blend-mode: normal"><g transform="scale(4,4)"><path d="M56.75,32c-1.56,-4.97 -6.23,-8.81 -11.13,-10.11c0.04,-0.47 0.06,-0.94 0.06,-1.42c0,-3.19 -1.1,-7.01 -2.68,-9.47c-4,0 -8.92,2.62 -11.6,5.5c-2.68,-2.88 -7.94,-5.79 -12.4,-5.5c-1.54,2.43 -2.8,6.34 -2.8,9.47c0,0.58 0.03,1.14 0.09,1.7c-4.48,1.5 -8.58,5.17 -10.04,9.83c1.56,4.97 6.03,8.81 10.93,10.11c-0.04,0.47 -0.06,0.94 -0.06,1.42c0,3.19 1.3,7.01 2.88,9.47c0.39,0.03 0.6,0 1,0c4.16,0 7.72,-2.62 10.4,-5.5c2.68,2.88 6.44,5.5 10.6,5.5c0.74,0 1.29,0.11 2,0c1.54,-2.43 2.6,-6.34 2.6,-9.47c0,-0.58 -0.03,-1.14 -0.09,-1.7c4.48,-1.5 8.78,-5.17 10.24,-9.83zM45.65,39.59l-7.29,6.21c-0.91,0.77 -2.04,1.18 -3.2,1.18c-0.55,0 -1.12,-0.1 -1.66,-0.29c0,0 -8.12,-3.74 -10.77,-5.11c-0.71,-0.37 -1.94,-1.14 -2.82,-1.7c-1.27,-0.81 -2.09,-2.25 -1.95,-3.77c0.02,-0.16 0.04,-0.32 0.07,-0.49c0.27,-1.27 1.08,-2.35 2.22,-2.97c0.5,-0.26 1.04,-0.41 1.57,-0.45l-4.38,-5.61c-1.48,-1.87 -1.18,-4.61 0.65,-6.1c1.83,-1.5 4.51,-1.2 5.98,0.67l2.28,2.79c0.21,-0.42 0.5,-0.8 0.88,-1.11c0.86,-0.7 1.97,-0.88 2.96,-0.58c0.18,-0.55 0.52,-1.05 0.99,-1.44c0.66,-0.54 1.48,-0.78 2.31,-0.69c0.62,0.07 1.19,0.32 1.66,0.72c0.2,-0.43 0.48,-0.81 0.86,-1.11c1.23,-1.01 3.07,-1.01 4.34,0.37c2.72,2.93 4.83,5.97 7.06,15.11c0.37,1.54 -0.44,3.24 -1.76,4.37z" fill="url(#color-1_BZz399uT6eo0_gr1)"></path><path d="M47.408,35.217c-2.228,-9.134 -4.342,-12.179 -7.053,-15.112c-1.272,-1.377 -3.114,-1.38 -4.347,-0.365c-0.373,0.301 -0.658,0.683 -0.861,1.108c-0.468,-0.395 -1.038,-0.645 -1.655,-0.714c-0.833,-0.097 -1.653,0.15 -2.307,0.686c-0.474,0.388 -0.812,0.886 -0.997,1.439c-0.985,-0.3 -2.093,-0.122 -2.952,0.582c-0.382,0.313 -0.674,0.693 -0.887,1.105l-2.276,-2.786c-1.472,-1.867 -4.148,-2.172 -5.978,-0.67c-1.83,1.492 -2.129,4.232 -0.657,6.099l4.387,5.612c-0.537,0.041 -1.074,0.183 -1.572,0.447c-1.144,0.619 -1.95,1.705 -2.218,2.974c-0.033,0.163 -0.057,0.327 -0.071,0.491c-0.136,1.516 0.682,2.956 1.945,3.766c0.881,0.565 2.111,1.335 2.821,1.701c2.651,1.365 10.773,5.105 10.773,5.105c0.537,0.193 1.104,0.294 1.661,0.294c1.154,0 2.288,-0.406 3.193,-1.177l7.291,-6.211c1.322,-1.126 2.137,-2.829 1.76,-4.374zM44.374,38.038l-7.292,6.201c-0.806,0.69 -1.92,0.893 -2.915,0.538c0,0 -7.888,-3.725 -10.773,-5.115c-0.355,-0.171 -1.587,-0.894 -2.344,-1.342c-0.677,-0.401 -1.154,-1.134 -1.113,-1.932c0.006,-0.116 0.021,-0.233 0.045,-0.349c0.139,-0.69 0.318,-1.116 0.945,-1.451c0.925,-0.497 1.87,-0.264 3.114,0.376l3.979,1.776l-9.032,-11.417c-0.786,-0.995 -0.627,-2.456 0.348,-3.248c0.975,-0.802 2.397,-0.639 3.193,0.365l4.025,4.929c0.026,0.036 0.042,0.076 0.07,0.111l0.012,-0.01l3.235,3.962l1.522,-1.309l-3.248,-3.976c-0.351,-0.515 -0.217,-1.269 0.336,-1.721c0.535,-0.439 1.319,-0.349 1.765,0.216l3.339,4.088l1.5,-1.333l-2.817,-3.461l0.012,-0.01c-0.4,-0.508 -0.339,-1.12 0.152,-1.522c0.238,-0.196 0.534,-0.284 0.845,-0.251c0.305,0.034 0.58,0.188 0.791,0.456l2.768,3.247l1.542,-1.25l-1.313,-1.566c-0.199,-0.254 -0.289,-0.578 -0.249,-0.893c0.03,-0.325 0.189,-0.619 0.438,-0.822c0.686,-0.568 1.587,0.076 1.81,0.325c2.387,2.659 4.253,5.323 6.376,13.884c0.211,0.855 -0.28,1.824 -1.066,2.504z" fill="url(#color-2_BZz399uT6eo0_gr2)"></path><path d="M32,61c-5.036,0 -9.743,-2.197 -12.987,-6.046c-9.017,-0.514 -16.013,-7.874 -16.013,-16.954c0,-2.054 0.37,-4.07 1.1,-6c-0.73,-1.93 -1.1,-3.946 -1.1,-6c0,-8.667 6.396,-15.848 14.946,-16.873c3.248,-3.899 7.982,-6.127 13.054,-6.127c5.036,0 9.743,2.197 12.987,6.046c9.017,0.514 16.013,7.874 16.013,16.954c0,2.054 -0.37,4.07 -1.1,6c0.729,1.93 1.1,3.946 1.1,6c0,8.667 -6.396,15.848 -14.946,16.873c-3.248,3.899 -7.982,6.127 -13.054,6.127zM31,5c-4.599,0 -8.883,2.077 -11.754,5.698l-0.264,0.334l-0.425,0.04c-7.728,0.739 -13.557,7.156 -13.557,14.928c0,1.929 0.37,3.821 1.101,5.625l0.152,0.375l-0.152,0.375c-0.731,1.804 -1.101,3.696 -1.101,5.625c0,8.146 6.384,14.724 14.533,14.975l0.462,0.015l0.288,0.361c2.869,3.589 7.14,5.649 11.717,5.649c4.599,0 8.883,-2.077 11.754,-5.698l0.264,-0.334l0.425,-0.04c7.728,-0.739 13.557,-7.156 13.557,-14.928c0,-1.929 -0.37,-3.821 -1.101,-5.625l-0.152,-0.375l0.152,-0.375c0.731,-1.804 1.101,-3.696 1.101,-5.625c0,-8.146 -6.384,-14.724 -14.533,-14.975l-0.462,-0.015l-0.288,-0.361c-2.869,-3.589 -7.14,-5.649 -11.717,-5.649z" fill="url(#color-3_BZz399uT6eo0_gr3)"></path></g></g>
</svg>