<?xml version="1.0" encoding="UTF-8"?>
<svg id="Layer_2" data-name="Layer 2" xmlns="http://www.w3.org/2000/svg" viewBox="0 0 799.99 598.72">
  <defs>
    <style>
      .cls-1 {
        fill: #eabd7b;
      }
    </style>
  </defs>
  <g id="Layer_1-2" data-name="Layer 1">
    <g>
      <path class="cls-1" d="m299.29,151.01c-31.56,0-53.32,10.71-65.3,32.42-11.7,21.7-17.68,56.09-17.68,103.73s5.71,81.46,17.14,101.76c11.43,20.3,33.46,30.72,65.84,30.72s54.14-10.15,65.57-30.16c11.15-20.01,16.87-54.12,16.87-101.76s-5.71-82.59-17.41-104.29c-11.7-21.7-33.46-32.42-65.02-32.42Z"/>
      <path class="cls-1" d="m723.1,0H110.97L0,112.76v485.96h689.02l110.97-112.76V0h-76.89Zm-296.93,388.44c-8.73,25.49-22.63,44.88-42.26,58.18l42.26,69.54-52.08,24.66-44.99-75.09c-6.54,1.94-16.63,3.05-30.81,3.05-52.62,0-89.43-14.41-110.16-43.22-20.72-28.81-31.08-74.53-31.08-136.59s10.63-108.6,31.63-138.8c20.99-30.2,57.53-45.44,109.61-45.44s88.61,14.96,109.34,45.16c20.99,29.92,31.36,76.19,31.36,138.81,0,41.28-4.36,74.53-12.82,99.74Zm157.87,73.97c-28.63,0-48.26-6.65-58.9-19.95-10.63-13.3-16.08-38.51-16.08-75.64v-119.69h-38.72v-47.65h38.72v-74.81h54.8v74.81h69.8v47.93h-69.8v113.32c0,21.05,1.64,34.91,4.64,41.56,3,6.93,10.91,10.25,23.18,10.25l41.44-1.67,2.45,44.89c-22.36,4.43-39.54,6.65-51.53,6.65Z"/>
    </g>
  </g>
</svg>