<?xml version="1.0" encoding="UTF-8"?>
<svg version="1.1" xmlns="http://www.w3.org/2000/svg" width="1692" height="1677">
<path d="M0 0 C4.95381601 0.00697512 9.90762423 0.00210687 14.86144215 -0.00115498 C23.51421864 -0.00527108 32.16696741 -0.00206914 40.81974065 0.00612144 C53.68579388 0.0182661 66.5518299 0.01878617 79.41788782 0.01703746 C101.06790583 0.01441852 122.71791156 0.02105864 144.367926 0.03307227 C165.78787783 0.04492764 187.2078243 0.05262783 208.62777936 0.0547779 C209.29464726 0.05484672 209.96151516 0.05491555 210.64859118 0.05498646 C216.74000033 0.05561291 222.83140949 0.05618829 228.92281866 0.05670241 C244.06085543 0.05798069 259.19889208 0.05989902 274.33692872 0.0622528 C275.02604504 0.06235943 275.71516135 0.06246607 276.42515997 0.06257594 C309.89206296 0.06781052 343.35896262 0.08042215 376.82586324 0.09365348 C388.42988747 0.09823708 400.0339117 0.10278793 411.637936 0.10720328 C412.7175587 0.10761413 412.7175587 0.10761413 413.81899195 0.10803328 C447.31679197 0.12073586 480.81459254 0.12815569 514.31239432 0.13426892 C516.50588095 0.13467006 518.69936758 0.13507466 520.89285421 0.1354804 C546.17197805 0.14015468 571.45110195 0.14450906 596.73022587 0.1487703 C706.7444518 0.16752602 816.75866033 0.2076719 926.77288473 0.24453239 C926.77288473 144.78453239 926.77288473 289.32453239 926.77288473 438.24453239 C923.41093104 439.36518362 920.47617747 439.60459914 916.93987691 439.88955192 C916.24233611 439.94689317 915.54479532 440.00423442 914.82611692 440.06331328 C913.29916107 440.18840008 911.77206438 440.31177651 910.24485052 440.43367271 C907.77560041 440.63087153 905.30675983 440.83262753 902.83797872 441.03560905 C899.2723463 441.32855204 895.70659154 441.61993517 892.14074361 441.91024284 C851.30415197 445.24164812 810.52217286 448.97860407 769.77288473 453.24453239 C768.99244047 453.32604041 768.21199621 453.40754844 767.40790212 453.4915264 C714.47454501 459.02058748 661.70269629 465.49846 609.00257528 472.93015555 C606.85785042 473.23255259 604.71302006 473.53419143 602.56817281 473.83571891 C539.99629327 482.64403508 477.65418631 493.45461481 415.77288473 506.24453239 C414.82421529 506.44006705 413.87554586 506.63560172 412.89812887 506.83706168 C306.2258208 528.54446696 306.2258208 528.54446696 212.77288473 581.24453239 C211.79190816 582.02183707 210.8109316 582.79914176 209.80022848 583.60000114 C206.69471308 586.19697359 204.15407201 589.15226898 201.71038473 592.36953239 C201.27919332 592.93720328 200.84800191 593.50487418 200.4037441 594.08974723 C192.62440385 604.6259868 188.5970995 616.27575061 190.24163473 629.43203239 C194.78069162 653.4623336 213.00206933 671.89748225 231.77288473 686.24453239 C232.39099019 686.71729606 233.00909566 687.19005973 233.6459316 687.67714957 C242.62346243 694.4776509 251.86373023 700.64079795 261.52288473 706.43203239 C295.08642058 726.55969368 295.08642058 726.55969368 302.77288473 741.24453239 C303.17636129 741.92257926 303.57983785 742.60062614 303.99554098 743.29921989 C306.17013707 748.74117394 305.63626069 755.69224167 303.79241598 761.14296989 C291.01863915 787.31938639 254.35597259 801.15337144 228.77288473 811.24453239 C227.85861715 811.61223746 226.94434957 811.97994254 226.00237691 812.3587902 C169.65087091 834.99346857 110.56334047 850.41732095 51.77288473 865.24453239 C49.86373281 865.72632957 49.86373281 865.72632957 47.91601217 866.21786002 C-37.6041859 887.74865142 -124.14696302 905.96019948 -226.11949504 925.15902213 C-234.49062379 926.72450609 -242.85475589 928.32325174 -251.21539652 929.94375114 C-276.44106721 934.82231904 -301.69055257 939.52986645 -326.98102152 944.06093864 C-328.77072682 944.38186799 -328.77072682 944.38186799 -330.59658778 944.70928077 C-342.65388502 946.87131294 -354.71196747 949.02865764 -366.77366698 951.16600494 C-391.27882589 955.51256147 -415.7317421 960.04602258 -440.11774027 965.02187614 C-441.21161114 965.24478891 -442.30548201 965.46770167 -443.43250048 965.69736938 C-494.82999001 976.20127305 -545.62906353 988.85857815 -595.97394145 1003.58571891 C-598.08977431 1004.20437477 -600.20617487 1004.82103954 -602.3228184 1005.4369152 C-613.00896795 1008.55070501 -623.66684288 1011.71056586 -634.24200785 1015.18447379 C-662.56576137 1024.44439492 -689.36881308 1023.41719652 -716.22711527 1010.24453239 C-737.36827017 999.27286816 -754.1421212 978.11623698 -761.38336527 955.65859489 C-763.89649053 947.09601813 -765.37703221 939.31407777 -765.36755717 930.41320304 C-765.37052829 929.53509534 -765.37349941 928.65698764 -765.37656057 927.75227062 C-765.38521967 924.81462289 -765.3867536 921.87701607 -765.38824809 918.9393566 C-765.39287908 916.82942124 -765.39790412 914.7194867 -765.40329325 912.60955314 C-765.41641205 906.87213734 -765.42286388 901.13473326 -765.42730391 895.39730481 C-765.43024192 891.79720638 -765.43434859 888.19711108 -765.43880808 884.59701423 C-765.45249579 873.29033239 -765.46215022 861.9836578 -765.46600998 850.67696826 C-765.47046209 837.71060621 -765.48787067 824.74435109 -765.51701057 811.77802149 C-765.53883269 801.71032769 -765.54872542 791.64266346 -765.55005109 781.57494632 C-765.55108671 775.5867643 -765.55672024 769.59868256 -765.57487071 763.61052589 C-765.65189318 736.66329614 -765.16396662 710.04722332 -762.22711527 683.24453239 C-762.10515253 682.12958333 -761.98318978 681.01463428 -761.85753119 679.86589889 C-761.17553609 673.74864805 -760.4019183 667.65140027 -759.53961527 661.55703239 C-759.35261561 660.21040519 -759.35261561 660.21040519 -759.16183817 658.8365734 C-748.272345 580.90570085 -725.19562601 504.71940725 -658.22711527 373.24453239 C-657.57178813 372.1573693 -656.91646098 371.07020621 -656.24127543 369.95009879 C-648.28250397 356.7774158 -640.19232124 343.75761763 -631.22711527 331.24453239 C-630.70520609 330.51298942 -630.18329692 329.78144645 -629.64557231 329.02773551 C-619.90155271 315.38782307 -609.89843316 301.97606694 -599.48785746 288.83730582 C-598.37924369 287.4367256 -597.27544891 286.03233379 -596.17242777 284.62734489 C-588.24481481 274.59447371 -579.84269976 264.94621639 -571.24664652 255.48281364 C-569.335591 253.3647579 -567.46505944 251.21738671 -565.60211527 249.05703239 C-562.88359046 245.93135524 -560.01981019 243.01218905 -557.06329692 240.11294059 C-555.32023659 238.33928806 -553.70283122 236.51179885 -552.09039652 234.61953239 C-547.89493821 229.79614455 -543.43168846 225.26528697 -538.91461527 220.74453239 C-538.10443949 219.92211051 -537.29426371 219.09968864 -536.45953715 218.25234489 C-535.68545512 217.47632926 -534.91137309 216.70031364 -534.11383402 215.90078239 C-533.41475932 215.19759879 -532.71568461 214.4944152 -531.99542582 213.76992301 C-530.22711527 212.24453239 -530.22711527 212.24453239 -528.22711527 212.24453239 C-528.22711527 211.58453239 -528.22711527 210.92453239 -528.22711527 210.24453239 C-526.96930277 208.97500114 -526.96930277 208.97500114 -525.10211527 207.43203239 C-521.08716423 204.02820663 -517.24715807 200.47455366 -513.41461527 196.86953239 C-508.44813287 192.22325566 -503.37465953 187.8016206 -498.06305277 183.54921989 C-495.37619965 181.36568911 -492.75364521 179.12564985 -490.13898051 176.85708121 C-483.66825343 171.24393103 -477.04250329 165.89924846 -470.20172465 160.74209098 C-467.89306058 158.99118279 -465.59913478 157.22177583 -463.30524027 155.45156364 C-448.13008228 143.76561987 -432.56230103 132.95327146 -416.42340434 122.64931754 C-414.22595481 121.24379013 -412.03503839 119.8284644 -409.84430277 118.41250114 C-330.55300313 67.43829397 -241.68676478 32.68874953 -88.16461527 4.55703239 C-87.28577677 4.45411887 -86.40693827 4.35120536 -85.5014683 4.24517325 C-56.95818075 0.93680902 -28.70093583 -0.05362989 0 0 Z " fill="#E9BE7B" transform="translate(765.227115274407,-0.244532385841012)"/>
<path d="M0 0 C0.04586789 55.41534781 0.081065 110.83069368 0.10213066 166.24605677 C0.1046318 172.80173319 0.10722047 179.35740957 0.10986328 185.91308594 C0.1103879 187.21809651 0.11091252 188.52310708 0.11145304 189.86766343 C0.1201343 210.94444487 0.13589161 232.0212153 0.15430559 253.09799023 C0.17306826 274.75595208 0.18413013 296.4139082 0.18817699 318.07187784 C0.19090889 331.41506698 0.19950888 344.75822499 0.21583293 358.10140453 C0.22647857 367.27543875 0.22958365 376.44945709 0.22700275 385.62349702 C0.22573314 390.90102928 0.22755339 396.17850748 0.23841095 401.45602989 C0.28262039 424.06419062 -0.02807169 446.46423069 -2 469 C-2.07721684 469.89639324 -2.15443368 470.79278649 -2.23399043 471.71634316 C-2.65558189 476.54827256 -3.14106914 481.36761531 -3.6875 486.1875 C-3.76892242 486.90926422 -3.85034485 487.63102844 -3.93423462 488.37466431 C-13.51310042 572.29388258 -36.61395674 654.12076032 -138 842 C-138.49532227 842.70108887 -138.99064453 843.40217773 -139.50097656 844.12451172 C-150.21434191 859.24789025 -161.40258397 873.9843823 -173.48046875 888.046875 C-175.90816136 890.89235657 -178.2731706 893.77919283 -180.625 896.6875 C-184.25068347 901.14191113 -188.02429653 905.42948601 -191.890625 909.67578125 C-193.74626657 911.72042335 -195.56756376 913.78784149 -197.375 915.875 C-206.28536621 926.07057988 -215.62060784 935.78190908 -225.20776367 945.33813477 C-227.19892777 947.32389676 -229.18463221 949.3150074 -231.16992188 951.30664062 C-242.44096291 962.58357522 -242.44096291 962.58357522 -248.37768555 967.62280273 C-250.93292527 969.79196861 -253.35997043 972.09054589 -255.8125 974.375 C-260.44128136 978.65160739 -265.20740798 982.69540968 -270.12109375 986.64453125 C-272.14750224 988.30250183 -274.13176861 989.97305866 -276.09765625 991.69921875 C-285.23635083 999.71869523 -294.83184424 1007.00298947 -304.61035156 1014.22314453 C-306.752905 1015.81626916 -308.87695764 1017.42946928 -310.9921875 1019.05859375 C-322.59246561 1027.97056298 -334.75070833 1036.01253141 -347 1044 C-347.93682617 1044.61166016 -348.87365234 1045.22332031 -349.83886719 1045.85351562 C-404.95368757 1081.70851787 -464.0479768 1109.09107831 -526.18011475 1130.37561035 C-527.78215119 1130.92525763 -529.3826547 1131.47936858 -530.98291016 1132.03417969 C-544.25610145 1136.60735888 -557.80873744 1140.1676643 -571.375 1143.75 C-572.27532959 1143.98897003 -573.17565918 1144.22794006 -574.10327148 1144.47415161 C-604.89562269 1152.61785904 -635.38145034 1156.38643384 -667 1150 C-667.88961426 1149.82210938 -668.77922852 1149.64421875 -669.69580078 1149.4609375 C-692.17771868 1144.66308911 -713.14383119 1134.37567957 -734 1125 C-735.06589355 1124.52089172 -735.06589355 1124.52089172 -736.15332031 1124.03210449 C-744.81941194 1120.12761905 -753.42454387 1116.09951075 -762 1112 C-763.21109747 1111.42219467 -764.4221978 1110.84439535 -765.63330078 1110.26660156 C-774.10891603 1106.21863551 -782.56154187 1102.12486537 -791 1098 C-792.00820801 1097.50757813 -793.01641602 1097.01515625 -794.05517578 1096.5078125 C-806.9311102 1090.19945417 -819.58900306 1083.55119624 -832.12548828 1076.59326172 C-835.0882952 1074.95106043 -838.05766263 1073.32113832 -841.02734375 1071.69140625 C-860.53213776 1060.93454312 -879.5105262 1049.42699364 -898 1037 C-899.28406669 1036.14939458 -900.5690431 1035.30015859 -901.85546875 1034.453125 C-915.37369318 1025.51493206 -928.64906336 1016.26934367 -941.39648438 1006.25634766 C-943.06581947 1004.94843073 -944.74320402 1003.65137625 -946.421875 1002.35546875 C-962.10009237 990.20889332 -977.12639698 977.18575908 -991 963 C-993.46684179 960.5250702 -995.94085366 958.05829053 -998.4296875 955.60546875 C-1003.51825987 950.57379735 -1008.40977645 945.48869754 -1013 940 C-1013.44150391 939.4829248 -1013.88300781 938.96584961 -1014.33789062 938.43310547 C-1028.3137774 922.0256342 -1040.11409027 904.14595548 -1050 885 C-1050.32548828 884.37496582 -1050.65097656 883.74993164 -1050.98632812 883.10595703 C-1071.15623437 843.85043491 -1075.40366957 797.54536392 -1062.21386719 755.49365234 C-1054.1544525 731.27197431 -1041.98333121 709.80168129 -1026.32324219 689.70654297 C-1025.11784031 688.15197487 -1023.93645862 686.57885672 -1022.7578125 685.00390625 C-1021.82582031 683.76447266 -1021.82582031 683.76447266 -1020.875 682.5 C-1020.35679687 681.8090625 -1019.83859375 681.118125 -1019.3046875 680.40625 C-1018.87414062 679.9421875 -1018.44359375 679.478125 -1018 679 C-1017.34 679 -1016.68 679 -1016 679 C-1015.78472656 678.46761719 -1015.56945312 677.93523438 -1015.34765625 677.38671875 C-1013.49798468 674.1109236 -1011.00396503 671.53026059 -1008.4375 668.8125 C-1007.89810791 668.23661133 -1007.35871582 667.66072266 -1006.80297852 667.06738281 C-1005.20848824 665.37195149 -1003.60588479 663.68463491 -1002 662 C-1001.2059375 661.16339844 -1000.411875 660.32679688 -999.59375 659.46484375 C-994.94898782 654.69386521 -990.0141615 650.47316462 -984.81640625 646.31640625 C-981.96483392 643.971077 -979.26454804 641.51543177 -976.5625 639 C-971.53795759 634.39298999 -966.28656317 630.27403913 -960.76513672 626.28076172 C-958.81560003 624.86620162 -956.87864004 623.43526411 -954.94140625 622.00390625 C-921.04483882 597.08497954 -884.11019118 576.70030641 -846 559 C-844.5157251 558.30874023 -844.5157251 558.30874023 -843.00146484 557.60351562 C-772.12055224 524.85799202 -696.62243276 506.03007245 -620.58178711 489.85546875 C-539.22067046 472.54841591 -457.68136804 454.6792555 -255.08422852 362.7578125 C-251.19229672 359 -251.19229672 359 -249 359 C-249 358.34 -249 357.68 -249 357 C-248.34 357 -247.68 357 -247 357 C-246.74476563 356.42765625 -246.48953125 355.8553125 -246.2265625 355.265625 C-244.86842315 352.75695997 -243.2560357 350.89333151 -241.375 348.75 C-230.01999135 334.76824071 -223.77069905 317.01484666 -225 299 C-228.91338253 270.71271524 -245.02485953 246.44561658 -265.1875 226.8125 C-266.115625 225.884375 -267.04375 224.95625 -268 224 C-268 223.34 -268 222.68 -268 222 C-268.86020752 221.62331177 -268.86020752 221.62331177 -269.73779297 221.23901367 C-285.37166853 212.67632012 -300.35161684 191.76220589 -306 175 C-310.63199306 158.63362452 -309.40780446 144.130197 -301.4296875 129.02734375 C-297.37619872 122.32494719 -292.40934061 116.63590985 -287 111 C-286.37480469 110.32324219 -285.74960938 109.64648438 -285.10546875 108.94921875 C-253.91976048 76.18781153 -204.62757041 58.60904482 -163 44 C-162.35047363 43.77139282 -161.70094727 43.54278564 -161.03173828 43.30725098 C-124.7720616 30.56659767 -87.75517201 20.83576532 -50.5 11.5 C-49.80775833 11.32628372 -49.11551666 11.15256744 -48.40229797 10.97358704 C-4.66209042 0 -4.66209042 0 0 0 Z " fill="#E9BD7B" transform="translate(1692,524)"/>
<path d="M0 0 C0.66 0.33 1.32 0.66 2 1 C-15.82 18.82 -33.64 36.64 -52 55 C-52 52 -52 52 -49.62109375 49.36328125 C-48.56724352 48.33874165 -47.50566797 47.32210334 -46.4375 46.3125 C-43.03432541 43.05450475 -39.7542777 39.77278886 -36.6796875 36.19921875 C-32.55710879 31.42351304 -28.14522343 26.96135646 -23.6875 22.5 C-22.87732422 21.67757812 -22.06714844 20.85515625 -21.23242188 20.0078125 C-20.45833984 19.23179687 -19.68425781 18.45578125 -18.88671875 17.65625 C-18.18764404 16.95306641 -17.48856934 16.24988281 -16.76831055 15.52539062 C-15 14 -15 14 -13 14 C-13 13.34 -13 12.68 -13 12 C-11.42578125 10.44921875 -11.42578125 10.44921875 -9.3125 8.6875 C-6.04699036 5.91500692 -2.98084015 3.07399141 0 0 Z " fill="#94C8CF" transform="translate(250,198)"/>
</svg>
