<?xml version="1.0" encoding="UTF-8"?>
<svg id="Layer_2" data-name="Layer 2" xmlns="http://www.w3.org/2000/svg" viewBox="0 0 600.05 264.84">
  <defs>
    <style>
      .cls-1 {
        fill: #eabd7b;
      }
    </style>
  </defs>
  <g id="layer">
    <g>
      <path class="cls-1" d="m294.53,179.54c0,27.4-15.3,35.4-38.2,35.4h-34.2c-.3,0-.3-.2-.3-.5v-112.7c0-.2.1-.3.3-.3h34.8c21.7,0,37.6,10.4,37.6,32.1v46Zm-33.5-123.9h-83.6c-7.8,0-7.8,6.9-7.8,6.9v192.1c0,6,5.3,6.6,11.8,6.6h74.2c60.5,0,92.5-21.1,92.5-77.1v-53.8c0-60.8-43-74.7-87.1-74.7h0Zm254.8,182.3c-.5,12-3.1,23.3-6.5,23.3h-110c-17.6,0-20.8-3.9-20.8-7.2V61.54c0-5.9,13.3-8,28.3-8.8,15.4-.8,23.8.6,23.8,7.8v152.9c0,1.5,1.1,1.8,1.8,1.8h75.6c7.3,0,8.6,6.9,7.8,22.7h0Zm-454.7,26.9c-33.3,0-52.7-4.1-57.9-7.6-3.1-2.1-4.5-3.9-1.8-22.4,1.4-9.5,6.8-22,14.6-19.1,8.4,3.1,76.8,15.9,76.8-10.7,0-29-88.1-18.9-88.1-93.5,0-33.4,14.6-59,78-59,37.6,0,50.1,6.5,53.5,7.9,3.8,1.6,5.5,6.6,3,22.8-1.8,11.8-8.3,18.8-13.5,17.2-14-4.4-69.8-11-69.8,10,0,29,88,19.3,88,95.3.2,34.6-15.3,59.1-82.8,59.1h0Z"/>
      <g>
        <path class="cls-1" d="m531.33,74.94l4.9-5.9,4.9-5.9c1.5-1.8,4.2-2,6-.5l23.4,19.5,23.4,19.5c1.8,1.5,2,4.1.5,5.9h0l-4.9,5.9-4.9,5.9c-1.5,1.8-4.2,2-6,.5h0l-23.4-19.4-23.4-19.5c-1.8-1.5-2-4.1-.5-6q0,.1,0,0"/>
        <path class="cls-1" d="m503.03,130.44l7.1,2.9,7.1,2.9c2.2.9,4.6-.2,5.5-2.3l11.5-28.2,11.5-28.2c.9-2.2-.2-4.6-2.3-5.5h0l-7.1-2.9-7.1-2.9c-2.2-.9-4.7.2-5.5,2.3l-11.5,28.2-11.5,28.2c-.9,2.2.1,4.7,2.3,5.5h0"/>
        <path class="cls-1" d="m543.73,67.24l-7.5,1.8-7.5,1.9c-2.3.6-4.6-.8-5.2-3.1l-7.3-29.4-7.4-29.5c-.6-2.3.8-4.6,3.1-5.1l7.5-1.8,7.5-1.9c2.3-.6,4.6.8,5.2,3.1l7.4,29.5,7.4,29.5c.5,2.2-.9,4.5-3.2,5h0"/>
        <path class="cls-1" d="m599.43,38.94l-4.1-6.5-4.1-6.6c-1.3-2-3.9-2.6-5.9-1.3l-25.9,16.1-25.9,16.1c-2,1.2-2.6,3.8-1.4,5.8h0l4.1,6.6,4.1,6.5c1.2,2,3.9,2.6,5.9,1.3l25.9-16.1,25.9-16.1c2-1.2,2.6-3.8,1.4-5.8h0"/>
        <path class="cls-1" d="m536.83,61.54l-.5,7.6-.5,7.6c-.2,2.3-2.2,4.1-4.5,3.9l-30.5-2.1-30.6-2.1c-2.3-.2-4.1-2.2-4-4.5l.5-7.6.5-7.6c.2-2.3,2.2-4.1,4.5-3.9l30.5,2.1,30.5,2.1c2.4.1,4.2,2.1,4.1,4.5"/>
      </g>
    </g>
  </g>
</svg>